<svg width="24" height="24" viewBox="0 0 24 24" fill="none" xmlns="http://www.w3.org/2000/svg">
<g clip-path="url(#clip0_72_501)">
<path d="M0.81066 13.34L0.815981 16.0346L12.0491 24L0.81066 13.34ZM23.2876 13.34L12.0491 21.3054L23.2822 16.0346L23.2876 13.34ZM23.2982 7.94323L12.0491 0L0.800003 7.94323H23.2982ZM12.0491 21.3054V24L23.2822 16.0346L12.0491 21.3054ZM0.805334 10.6429L0.81066 13.34L12.0491 21.3054L0.805334 10.6429ZM12.0491 21.3054L0.81066 13.34L12.0491 24V21.3054ZM23.2929 10.6429L12.0491 18.6083L23.2876 13.34L23.2929 10.6429ZM12.0491 18.6083V21.3054L23.2876 13.34L12.0491 18.6083ZM0.800003 7.94323L0.805334 10.6429L12.0491 18.6083L0.800003 7.94323ZM12.0491 18.6083L0.805334 10.6429L12.0491 21.3054V18.6083ZM23.2982 7.94323L12.0491 15.9087L23.2929 10.6429L23.2982 7.94323ZM0.800003 7.94323L12.0491 15.9087L23.2982 7.94323H0.800003ZM12.0491 15.9087V18.6083L23.2929 10.6429L12.0491 15.9087ZM12.0491 15.9087L0.800003 7.94323L12.0491 18.6083V15.9087Z" fill="black"/>
<path d="M12.0491 0L0.800003 7.94323L12.0491 15.9087L23.2982 7.94323L12.0491 0Z" fill="white"/>
<path fill-rule="evenodd" clip-rule="evenodd" d="M0.800003 7.94323L12.0491 15.9087L23.2982 7.94323L12.0491 0L0.800003 7.94323ZM2.52216 7.94436L12.0491 14.6903L21.5761 7.94436L12.0491 1.21719L2.52216 7.94436Z" fill="black"/>
<path d="M12 8.00001V3.54639L18.8 8.00001L18.6192 7.95433L12 8.00001ZM18.8 8.00001L12 12.5464V8.00001L18.6192 7.95433L18.8 8.00001Z" fill="black"/>
<path d="M8.25722 6.46291H12V9.44577H8.25722V6.46291Z" fill="black"/>
</g>
<defs>
<clipPath id="clip0_72_501">
<rect width="24" height="24" fill="white"/>
</clipPath>
</defs>
</svg>
